<svg width="418" height="384" viewBox="0 0 418 384" fill="none" xmlns="http://www.w3.org/2000/svg">
<path d="M190.166 84.2798C298.032 84.2798 292.379 75.6206 273.274 36.5771C264.465 18.5755 276.266 -2.12117 295.817 2.28214C393.077 24.1863 471.756 198.882 370.167 313.78C292.913 401.154 14.1652 438.734 0.665186 228.734C-6.44963 118.059 44.8514 52.539 90.4104 22.1279C112.36 7.47647 122.682 26.9623 106.019 47.4259C82.0921 76.8088 93.6211 84.2798 190.166 84.2798Z" fill="white"/>
<path d="M119.06 228.522C82.596 225.456 58.8631 198.882 44.3826 167.921C43.5415 166.122 40.9106 166.449 40.6678 168.419C37.8399 191.371 38.9452 231.559 60.667 245.316C82.8173 259.345 96.8755 247.479 120.137 232.595C121.838 231.506 121.073 228.691 119.06 228.522Z" fill="black"/>
<path d="M183.08 230.196C282.289 223.663 315.928 173.074 328.46 149.965C329.368 148.289 331.528 148.707 331.421 150.611C329.912 177.44 298.776 246.05 252.167 266.816C226.969 278.043 183.76 253.323 181.279 232.196C181.155 231.145 182.024 230.266 183.08 230.196Z" fill="black"/>
</svg>
