<svg width="1087" height="90" viewBox="0 0 1087 90" fill="none" xmlns="http://www.w3.org/2000/svg">
<path d="M77.44 65.6656C81.6214 65.6656 84.4374 64.7696 85.888 62.9776C87.424 61.1002 88.192 58.7109 88.192 55.8096V33.1536C88.192 30.5082 87.5094 28.3322 86.144 26.6256C84.7787 24.8336 82.0907 23.9376 78.08 23.9376H35.456C30.9334 23.9376 27.8614 24.9189 26.24 26.8816C24.704 28.8442 23.936 31.3616 23.936 34.4336V56.0656C23.936 58.8816 24.6614 61.1856 26.112 62.9776C27.648 64.7696 30.4214 65.6656 34.432 65.6656H77.44ZM25.728 89.6016C17.4507 89.6016 11.0934 87.3829 6.65602 82.9456C2.21869 78.4229 1.95503e-05 72.0229 1.95503e-05 63.7456V25.8576C1.95503e-05 17.5802 2.21869 11.2229 6.65602 6.78556C11.0934 2.26289 17.4507 0.0015564 25.728 0.0015564H86.272C94.5494 0.0015564 100.907 2.26289 105.344 6.78556C109.867 11.2229 112.128 17.5802 112.128 25.8576V63.7456C112.128 72.0229 109.867 78.4229 105.344 82.9456C100.907 87.3829 94.5494 89.6016 86.272 89.6016H25.728ZM187.429 56.4496V67.4576H233.509C236.752 67.4576 238.928 67.0736 240.037 66.3056C241.146 65.4522 241.701 64.3002 241.701 62.8496V61.1856C241.701 59.7349 241.061 58.5829 239.781 57.7296C238.586 56.8762 236.368 56.4496 233.125 56.4496H187.429ZM187.429 34.8176H232.613C235.856 34.8176 238.117 34.3482 239.397 33.4096C240.677 32.4709 241.317 31.1056 241.317 29.3136V28.1616C241.317 26.1136 240.72 24.6202 239.525 23.6816C238.416 22.6576 236.24 22.1456 232.997 22.1456H187.429V34.8176ZM242.981 0.0015564C251.258 0.0015564 257.573 1.66556 261.925 4.99356C266.362 8.23623 268.581 13.9536 268.581 22.1456V24.3216C268.581 30.1242 267.386 34.6469 264.997 37.8896C262.608 41.1322 259.152 43.3936 254.629 44.6736C259.493 45.8682 263.205 48.0869 265.765 51.3296C268.41 54.5722 269.733 59.2229 269.733 65.2816V67.4576C269.733 75.6496 267.514 81.4096 263.077 84.7376C258.725 87.9802 252.41 89.6016 244.133 89.6016H163.365V0.0015564H242.981ZM405.46 28.6736V28.0336C405.46 26.4122 404.991 25.3456 404.052 24.8336C403.199 24.2362 401.919 23.9376 400.212 23.9376H350.164C348.457 23.9376 347.135 24.2362 346.196 24.8336C345.343 25.4309 344.916 26.5829 344.916 28.2896V29.0576C344.916 30.5936 345.343 31.6602 346.196 32.2576C347.135 32.8549 348.457 33.1536 350.164 33.1536H400.852C410.409 33.1536 417.663 34.9882 422.612 38.6576C427.647 42.2416 430.164 47.5322 430.164 54.5296V65.0256C430.164 73.2176 428.073 79.3616 423.892 83.4576C419.711 87.5536 412.841 89.6016 403.284 89.6016H347.86C337.961 89.6016 331.007 87.4682 326.996 83.2016C322.985 78.9349 320.98 73.6869 320.98 67.4576V60.9296H345.812V61.5696C345.812 63.1909 346.239 64.3002 347.092 64.8976C347.945 65.4096 349.225 65.6656 350.932 65.6656H400.724C402.431 65.6656 403.753 65.3242 404.692 64.6416C405.631 63.9589 406.1 62.9349 406.1 61.5696V60.9296C406.1 59.5642 405.631 58.5829 404.692 57.9856C403.753 57.3882 402.431 57.0896 400.724 57.0896H350.292C340.393 57.0896 333.012 55.2976 328.148 51.7136C323.369 48.1296 320.98 43.2656 320.98 37.1216V22.1456C320.98 15.9162 322.985 10.6682 326.996 6.40156C331.007 2.13489 337.961 0.0015564 347.86 0.0015564H403.284C413.183 0.0015564 420.137 2.13489 424.148 6.40156C428.159 10.6682 430.164 15.9162 430.164 22.1456V28.6736H405.46ZM570.302 36.3536V35.9696C570.302 31.4469 569.406 28.3322 567.614 26.6256C565.822 24.8336 562.878 23.9376 558.782 23.9376H517.182C513.001 23.9376 510.014 24.8336 508.222 26.6256C506.43 28.4176 505.534 31.5749 505.534 36.0976V54.0176C505.534 58.0282 506.473 60.9722 508.35 62.8496C510.313 64.7269 513.385 65.6656 517.566 65.6656H558.526C562.793 65.6656 565.822 64.7696 567.614 62.9776C569.406 61.1856 570.302 58.0282 570.302 53.5056V53.2496H594.366V54.4016C594.366 65.6656 591.337 74.3696 585.278 80.5136C579.219 86.5722 570.558 89.6016 559.294 89.6016H515.006C504.254 89.6016 495.977 86.7002 490.174 80.8976C484.371 75.0096 481.47 66.6896 481.47 55.9376V35.2016C481.47 23.9376 484.499 15.2762 490.558 9.21756C496.617 3.07356 505.235 0.0015564 516.414 0.0015564H559.294C570.558 0.0015564 579.219 3.07356 585.278 9.21756C591.337 15.2762 594.366 23.9376 594.366 35.2016V36.3536H570.302ZM754.769 63.7456C754.769 72.0229 752.55 78.4229 748.113 82.9456C743.676 87.3829 737.318 89.6016 729.041 89.6016H671.441C663.164 89.6016 656.764 87.3829 652.241 82.9456C647.804 78.4229 645.585 72.0229 645.585 63.7456V0.0015564H669.521V53.6336C669.521 57.0469 670.417 59.9056 672.209 62.2096C674.001 64.5136 677.5 65.6656 682.705 65.6656H717.649C722.854 65.6656 726.353 64.5136 728.145 62.2096C729.937 59.9056 730.833 57.0469 730.833 53.6336V0.0015564H754.769V63.7456ZM829.886 89.6016H805.95V0.0015564H884.926C894.654 0.0015564 901.694 1.87889 906.046 5.63356C910.398 9.38822 912.574 15.4896 912.574 23.9376V34.6896C912.574 43.6496 910.398 50.0922 906.046 54.0176C902.547 57.1749 896.958 59.0522 889.278 59.6496L909.758 89.6016H880.702L860.478 59.9056H829.886V89.6016ZM888.51 29.1856C888.51 27.6496 888.041 26.4122 887.102 25.4736C886.163 24.5349 884.542 24.0656 882.238 24.0656H829.886V35.9696H882.366C884.585 35.9696 886.163 35.5856 887.102 34.8176C888.041 33.9642 888.51 32.7696 888.51 31.2336V29.1856ZM1020.85 21.8896L1005.23 51.0736H1036.46L1020.85 21.8896ZM1006.13 0.0015564H1035.82L1086.51 89.6016H1055.66L1046.58 72.4496H995.248L986.032 89.6016H955.568L1006.13 0.0015564Z" fill="black"/>
</svg>
